<svg width="30" height="31" viewBox="0 0 30 31" fill="none" xmlns="http://www.w3.org/2000/svg">
<path d="M1 1H3.75094C4.97985 1 5.59431 1 6.05692 1.33371C6.51953 1.66743 6.71375 2.2501 7.1022 3.41546L8.06274 6.29705" stroke="#3F3E3C" stroke-width="1.5" stroke-linecap="round"/>
<path d="M25.7194 23.9539H9.03368C8.77766 23.9539 8.64876 23.9539 8.54989 23.9433C8.30473 23.916 8.06802 23.8375 7.85502 23.7131C7.64202 23.5887 7.45746 23.421 7.31323 23.2209C7.169 23.0208 7.0683 22.7926 7.01763 22.5512C6.96696 22.3098 6.96744 22.0604 7.01904 21.8192C7.0598 21.6629 7.10752 21.5086 7.16206 21.3566C7.25387 21.0847 7.29802 20.9487 7.34922 20.8269C7.60057 20.2249 8.01376 19.7042 8.54298 19.3228C9.0722 18.9413 9.69675 18.7138 10.3474 18.6657C10.478 18.6569 10.621 18.6569 10.9071 18.6569H20.4223" stroke="#3F3E3C" stroke-width="1.5" stroke-linecap="round" stroke-linejoin="round"/>
<path d="M19.8556 18.6568H14.4861C12.2261 18.6568 11.096 18.6568 10.2132 18.0741C9.32857 17.4914 8.88361 16.4532 7.99371 14.3768L7.69531 13.6811C6.2651 10.3439 5.55177 8.6789 6.33573 7.48707C7.12322 6.297 8.93835 6.297 12.5651 6.297H21.8879C25.949 6.297 27.9777 6.297 28.744 7.61596C29.5086 8.93493 28.5021 10.6971 26.4875 14.2214L25.9878 15.0989C24.9955 16.8346 24.4993 17.7033 23.6765 18.1801C22.8555 18.6568 21.8543 18.6568 19.8556 18.6568Z" stroke="#3F3E3C" stroke-width="1.5" stroke-linecap="round"/>
<path d="M24.8367 30.1338C25.8119 30.1338 26.6024 29.3433 26.6024 28.3681C26.6024 27.3929 25.8119 26.6024 24.8367 26.6024C23.8616 26.6024 23.071 27.3929 23.071 28.3681C23.071 29.3433 23.8616 30.1338 24.8367 30.1338Z" fill="#3F3E3C"/>
<path d="M10.7115 30.1338C11.6866 30.1338 12.4772 29.3433 12.4772 28.3681C12.4772 27.3929 11.6866 26.6024 10.7115 26.6024C9.73632 26.6024 8.9458 27.3929 8.9458 28.3681C8.9458 29.3433 9.73632 30.1338 10.7115 30.1338Z" fill="#3F3E3C"/>
</svg>
