<svg width="24" height="25" viewBox="0 0 24 25" fill="none" xmlns="http://www.w3.org/2000/svg">
<path d="M19.02 5.47498C17.631 4.08658 15.8614 3.14124 13.9352 2.75851C12.0089 2.37577 10.0124 2.57284 8.19808 3.32478C6.38379 4.07672 4.83322 5.34976 3.74243 6.98293C2.65165 8.6161 2.06964 10.536 2.07001 12.5C2.07001 15.134 3.11604 17.6603 4.97813 19.5233C6.84023 21.3863 9.36595 22.4337 12 22.435C13.3034 22.435 14.5943 22.1802 15.8 21.685C17.0016 21.1775 18.0947 20.4442 19.02 19.525C19.9426 18.6025 20.6745 17.5073 21.1739 16.3019C21.6732 15.0966 21.9302 13.8047 21.9302 12.5C21.9302 11.1953 21.6732 9.90337 21.1739 8.69801C20.6745 7.49265 19.9426 6.39746 19.02 5.47498ZM18.32 18.815C16.8901 20.2511 15.0138 21.1575 13 21.385V14.825H14.88C15.1452 14.825 15.3996 14.7196 15.5871 14.5321C15.7747 14.3445 15.88 14.0902 15.88 13.825C15.88 13.5598 15.7747 13.3054 15.5871 13.1179C15.3996 12.9303 15.1452 12.825 14.88 12.825H13V10.085C13 9.81976 13.1054 9.56541 13.2929 9.37787C13.4804 9.19034 13.7348 9.08498 14 9.08498H15.2C15.4652 9.08498 15.7196 8.97962 15.9071 8.79209C16.0947 8.60455 16.2 8.3502 16.2 8.08498C16.2 7.81976 16.0947 7.56541 15.9071 7.37787C15.7196 7.19034 15.4652 7.08498 15.2 7.08498H13.5C12.837 7.08498 12.2011 7.34837 11.7322 7.81721C11.2634 8.28605 11 8.92194 11 9.58498V12.825H9.13001C8.86479 12.825 8.61044 12.9303 8.4229 13.1179C8.23536 13.3054 8.13001 13.5598 8.13001 13.825C8.13001 14.0902 8.23536 14.3445 8.4229 14.5321C8.61044 14.7196 8.86479 14.825 9.13001 14.825H11V21.385C9.1429 21.1731 7.39929 20.3831 6.01546 19.1266C4.63163 17.8702 3.67752 16.2107 3.28791 14.3826C2.89829 12.5545 3.09287 10.6502 3.84414 8.93864C4.59541 7.22711 5.86541 5.79486 7.47476 4.8442C9.0841 3.89354 10.9514 3.47252 12.813 3.6406C14.6746 3.80868 16.4363 4.55737 17.8494 5.78092C19.2624 7.00447 20.2553 8.64104 20.6879 10.4595C21.1204 12.2779 20.9708 14.1862 20.26 15.915C19.8064 16.9977 19.1477 17.9825 18.32 18.815Z" fill="#3F3E3C"/>
</svg>
