<svg width="20" height="21" viewBox="0 0 20 21" fill="none" xmlns="http://www.w3.org/2000/svg">
<g id="Group">
<path id="Vector" d="M10 14.5C11.0609 14.5 12.0783 14.0786 12.8284 13.3284C13.5786 12.5783 14 11.5609 14 10.5C14 9.43913 13.5786 8.42172 12.8284 7.67157C12.0783 6.92143 11.0609 6.5 10 6.5C8.93913 6.5 7.92172 6.92143 7.17157 7.67157C6.42143 8.42172 6 9.43913 6 10.5C6 11.5609 6.42143 12.5783 7.17157 13.3284C7.92172 14.0786 8.93913 14.5 10 14.5Z" stroke="#3F3E3C" stroke-width="1.5" stroke-linecap="round" stroke-linejoin="round"/>
<path id="Vector_2" d="M1 14.5V6.5C1 5.17392 1.52678 3.90215 2.46447 2.96447C3.40215 2.02678 4.67392 1.5 6 1.5H14C15.3261 1.5 16.5979 2.02678 17.5355 2.96447C18.4732 3.90215 19 5.17392 19 6.5V14.5C19 15.8261 18.4732 17.0979 17.5355 18.0355C16.5979 18.9732 15.3261 19.5 14 19.5H6C4.67392 19.5 3.40215 18.9732 2.46447 18.0355C1.52678 17.0979 1 15.8261 1 14.5Z" stroke="#3F3E3C" stroke-width="1.5"/>
<path id="Vector_3" d="M15.5 5.01002L15.51 4.99902" stroke="#3F3E3C" stroke-width="1.5" stroke-linecap="round" stroke-linejoin="round"/>
</g>
</svg>
