<svg width="40" height="33" viewBox="0 0 40 33" fill="none" xmlns="http://www.w3.org/2000/svg">
<g id="logos:mastercard" clip-path="url(#clip0_283_2131)">
<path id="Vector" d="M7.27187 31.7724V29.7144C7.27187 28.9253 6.79155 28.411 5.96827 28.411C5.55671 28.411 5.11077 28.5481 4.80202 28.9941C4.56202 28.6167 4.21906 28.411 3.70452 28.411C3.3614 28.411 3.01859 28.5138 2.74406 28.8911V28.4796H2.02374V31.7724H2.74406V29.9544C2.74406 29.3714 3.05281 29.0969 3.53312 29.0969C4.01312 29.0969 4.25343 29.4056 4.25343 29.9544V31.7724H4.97374V29.9544C4.97374 29.3714 5.31656 29.0969 5.76249 29.0969C6.24281 29.0969 6.48281 29.4056 6.48281 29.9544V31.7724H7.27187ZM17.9392 28.4796H16.7731V27.4849H16.0528V28.4796H15.4011V29.1311H16.0526V30.6405C16.0526 31.3952 16.3614 31.841 17.1847 31.841C17.4934 31.841 17.8362 31.7381 18.0766 31.601L17.8706 30.9835C17.6648 31.1206 17.4248 31.155 17.2533 31.155C16.9103 31.155 16.7731 30.9492 16.7731 30.6061V29.1311H17.9392V28.4796ZM24.0448 28.4108C23.6333 28.4108 23.3589 28.6167 23.1873 28.8911V28.4796H22.467V31.7724H23.1873V29.9202C23.1873 29.3714 23.4273 29.0627 23.8733 29.0627C24.0105 29.0627 24.182 29.0971 24.3192 29.1313L24.525 28.4453C24.3878 28.411 24.182 28.411 24.0448 28.411M14.818 28.7541C14.4748 28.5139 13.9947 28.4111 13.4801 28.4111C12.657 28.4111 12.1083 28.8227 12.1083 29.4744C12.1083 30.0233 12.5198 30.3319 13.2401 30.4349L13.5831 30.4692C13.9605 30.5377 14.1662 30.6406 14.1662 30.8122C14.1662 31.0522 13.8919 31.2238 13.4116 31.2238C12.9314 31.2238 12.5541 31.0522 12.3139 30.8808L11.9709 31.4296C12.3483 31.7039 12.8628 31.8411 13.3772 31.8411C14.3376 31.8411 14.8866 31.3953 14.8866 30.7778C14.8866 30.1947 14.4406 29.886 13.7545 29.7831L13.4116 29.7488C13.1028 29.7144 12.8628 29.646 12.8628 29.4402C12.8628 29.2 13.1028 29.0628 13.4801 29.0628C13.8919 29.0628 14.3034 29.2342 14.5092 29.3372L14.818 28.7541ZM33.9578 28.4111C33.5461 28.4111 33.2717 28.6169 33.1002 28.8913V28.4797H32.3798V31.7725H33.1002V29.9203C33.1002 29.3716 33.3403 29.0628 33.7861 29.0628C33.9234 29.0628 34.095 29.0972 34.2322 29.1314L34.438 28.4455C34.3008 28.4111 34.095 28.4111 33.9578 28.4111ZM24.7651 30.1261C24.7651 31.1208 25.4511 31.8411 26.5145 31.8411C26.9947 31.8411 27.3377 31.7383 27.6806 31.4639L27.3377 30.8808C27.0633 31.0866 26.7889 31.1894 26.4802 31.1894C25.897 31.1894 25.4855 30.7778 25.4855 30.1261C25.4855 29.5088 25.897 29.0971 26.4802 29.0628C26.7889 29.0628 27.0633 29.1656 27.3377 29.3716L27.6806 28.7885C27.3377 28.5139 26.9947 28.4111 26.5145 28.4111C25.4511 28.4111 24.7651 29.1314 24.7651 30.1261ZM31.4195 30.1261V28.4797H30.6992V28.8913C30.4591 28.5827 30.1161 28.4111 29.6702 28.4111C28.7441 28.4111 28.0237 29.1314 28.0237 30.1261C28.0237 31.1208 28.7441 31.8411 29.6702 31.8411C30.1503 31.8411 30.4934 31.6697 30.6992 31.361V31.7725H31.4195V30.1261ZM28.7783 30.1261C28.7783 29.543 29.1556 29.0628 29.773 29.0628C30.3561 29.0628 30.7678 29.5088 30.7678 30.1261C30.7678 30.7092 30.3561 31.1894 29.773 31.1894C29.1556 31.155 28.7783 30.7092 28.7783 30.1261ZM20.1689 28.4111C19.2084 28.4111 18.5223 29.0971 18.5223 30.1261C18.5223 31.1552 19.2083 31.8411 20.2031 31.8411C20.6833 31.8411 21.1636 31.7039 21.5409 31.3953L21.1978 30.8808C20.9234 31.0866 20.5805 31.2238 20.2375 31.2238C19.7916 31.2238 19.3456 31.018 19.2426 30.4347H21.6781V30.1605C21.7125 29.0971 21.0951 28.4111 20.1689 28.4111ZM20.1687 29.0285C20.6145 29.0285 20.9234 29.303 20.9919 29.8175H19.2769C19.3455 29.3716 19.6542 29.0285 20.1687 29.0285ZM38.0394 30.1261V27.1763H37.3191V28.8913C37.0789 28.5827 36.7359 28.4111 36.29 28.4111C35.3639 28.4111 34.6436 29.1314 34.6436 30.1261C34.6436 31.1208 35.3639 31.8411 36.29 31.8411C36.7703 31.8411 37.1133 31.6697 37.3191 31.361V31.7725H38.0394V30.1261ZM35.3983 30.1261C35.3983 29.543 35.7755 29.0628 36.393 29.0628C36.9761 29.0628 37.3876 29.5088 37.3876 30.1261C37.3876 30.7092 36.9761 31.1894 36.393 31.1894C35.7755 31.155 35.3983 30.7092 35.3983 30.1261ZM11.3191 30.1261V28.4797H10.5987V28.8913C10.3586 28.5827 10.0156 28.4111 9.56968 28.4111C8.64359 28.4111 7.92327 29.1314 7.92327 30.1261C7.92327 31.1208 8.64359 31.8411 9.56968 31.8411C10.05 31.8411 10.393 31.6697 10.5987 31.361V31.7725H11.3191V30.1261ZM8.64359 30.1261C8.64359 29.543 9.02093 29.0628 9.63827 29.0628C10.2214 29.0628 10.6331 29.5088 10.6331 30.1261C10.6331 30.7092 10.2214 31.1894 9.63827 31.1894C9.02093 31.155 8.64359 30.7092 8.64359 30.1261Z" fill="black"/>
<path id="Vector_2" d="M14.5778 3.47461H25.3825V22.8888H14.5778V3.47461Z" fill="#FF5F00"/>
<path id="Vector_3" d="M15.2639 13.1818C15.2639 9.23725 17.1161 5.7385 19.963 3.47459C17.8708 1.82818 15.2297 0.833496 12.3484 0.833496C5.52234 0.833496 0 6.35584 0 13.1818C0 20.0076 5.52234 25.5301 12.3483 25.5301C15.2295 25.5301 17.8706 24.5354 19.963 22.8888C17.1161 20.6593 15.2639 17.1263 15.2639 13.1818Z" fill="#EB001B"/>
<path id="Vector_4" d="M39.9603 13.1818C39.9603 20.0076 34.4379 25.5301 27.612 25.5301C24.7308 25.5301 22.0897 24.5354 19.9973 22.8888C22.8786 20.6251 24.6965 17.1263 24.6965 13.1818C24.6965 9.23725 22.8442 5.7385 19.9973 3.47459C22.0895 1.82818 24.7308 0.833496 27.612 0.833496C34.4379 0.833496 39.9603 6.39021 39.9603 13.1818Z" fill="#F79E1B"/>
</g>
<defs>
<clipPath id="clip0_283_2131">
<rect width="40" height="32" fill="white" transform="translate(0 0.5)"/>
</clipPath>
</defs>
</svg>
