<svg width="60" height="28" viewBox="0 0 60 28" fill="none" xmlns="http://www.w3.org/2000/svg">
<g clip-path="url(#clip0_182_741)">
<path d="M22.7805 0.842188L14.925 19.5823H9.80016L5.93437 4.62594C5.7 3.70695 5.49633 3.36875 4.78313 2.98016C3.61734 2.34687 1.69219 1.75461 0 1.38617L0.114141 0.842188H8.36508C9.41508 0.842188 10.3605 1.54133 10.601 2.75187L12.6436 13.5971L17.6864 0.842188H22.7805ZM29.7087 0.842188L25.7002 19.5823H20.8514L24.8604 0.842188H29.7087ZM42.8609 13.4637C42.881 8.51867 36.0232 8.24422 36.068 6.03477C36.0844 5.36305 36.7242 4.64797 38.1248 4.46516C38.8186 4.37539 40.7353 4.30391 42.9063 5.30422L43.7557 1.32781C42.5892 0.905938 41.088 0.5 39.2208 0.5C34.4278 0.5 31.0563 3.04578 31.0294 6.69406C30.998 9.39266 33.4376 10.8966 35.2723 11.7955C37.162 12.7133 37.7958 13.3032 37.7871 14.1235C37.7735 15.3809 36.2777 15.9376 34.8872 15.9582C32.4487 15.9969 31.0352 15.2991 29.9077 14.7739L29.0276 18.882C30.162 19.4019 32.2526 19.8535 34.418 19.8765C39.5133 19.8765 42.8459 17.3598 42.8609 13.4637ZM55.5171 19.5826H60L56.0836 0.842188H51.9476C51.0148 0.842188 50.2308 1.38359 49.883 2.21586L42.608 19.5823H47.6993L48.7092 16.783H54.9295L55.5171 19.5826ZM50.1054 12.943L52.6582 5.90539L54.1247 12.943H50.1054ZM35.914 24.7409H33.9438V26.5745H36.1474V27.1257H33.2801V22.0391H36.0345V22.5903H33.9438V24.1974H35.9137L35.914 24.7409ZM37.1653 21.7677H37.8291V27.1255H37.1653V21.7677ZM39.5039 25.4199C39.5189 26.3183 40.0852 26.6879 40.7564 26.6879C41.2322 26.6879 41.5263 26.6049 41.7682 26.4995L41.8887 26.975C41.6548 27.0805 41.2474 27.2087 40.6659 27.2087C39.5419 27.2087 38.8704 26.4617 38.8704 25.3597C38.8704 24.2581 39.5189 23.3975 40.5832 23.3975C41.7832 23.3975 42.0926 24.4393 42.0926 25.1108C42.0926 25.2465 42.0848 25.3445 42.0696 25.4202L39.5039 25.4199ZM41.4509 24.9446C41.4586 24.5298 41.2774 23.873 40.5302 23.873C39.851 23.873 39.5641 24.4843 39.5112 24.9446H41.4509ZM45.7057 26.9973C45.5323 27.0805 45.1472 27.2089 44.6569 27.2089C43.5551 27.2089 42.8381 26.4617 42.8381 25.3447C42.8381 24.2202 43.6076 23.3977 44.8001 23.3977C45.1924 23.3977 45.5395 23.4955 45.7207 23.5939L45.5702 24.0995C45.4111 24.0165 45.1622 23.9255 44.8001 23.9255C43.9622 23.9255 43.5098 24.552 43.5098 25.3072C43.5098 26.1521 44.0531 26.6729 44.7776 26.6729C45.1549 26.6729 45.4038 26.5824 45.5925 26.4995L45.7057 26.9973ZM47.5685 22.5976V23.473H48.5191V23.9783H47.5685V25.9482C47.5685 26.4015 47.697 26.6577 48.0666 26.6577C48.2475 26.6577 48.3534 26.6429 48.4516 26.6122L48.4819 27.1184C48.3534 27.1634 48.1498 27.2087 47.8931 27.2087C47.5835 27.2087 47.3344 27.103 47.1762 26.9298C46.995 26.7256 46.9195 26.4015 46.9195 25.9712V23.9783H46.3533V23.473H46.9195V22.7938L47.5685 22.5976ZM49.4466 24.6127C49.4466 24.1824 49.4386 23.8128 49.4163 23.473H49.9976L50.028 24.1972H50.0501C50.2165 23.7071 50.6236 23.3975 51.0687 23.3975C51.1369 23.3975 51.1898 23.4052 51.2503 23.4125V24.0392C51.1823 24.0238 51.1146 24.0237 51.0234 24.0237C50.5561 24.0237 50.2235 24.3709 50.1333 24.8694C50.1177 24.9718 50.1101 25.0752 50.1105 25.1787V27.1259H49.4466V24.6127ZM55.332 25.269C55.332 26.6199 54.3884 27.2087 53.5132 27.2087C52.5319 27.2087 51.7624 26.484 51.7624 25.3297C51.7624 24.1145 52.5698 23.3977 53.5737 23.3977C54.6225 23.3977 55.332 24.1592 55.332 25.269ZM52.4414 25.3072C52.4414 26.1071 52.8942 26.7111 53.5432 26.7111C54.1774 26.7111 54.6525 26.1144 54.6525 25.292C54.6525 24.6732 54.3431 23.8955 53.5582 23.8955C52.7812 23.8955 52.4414 24.6205 52.4414 25.3072ZM56.3496 24.4618C56.3496 24.0772 56.3416 23.7751 56.3191 23.4734H56.9079L56.9456 24.0772H56.9606C57.1418 23.7373 57.5644 23.398 58.1681 23.398C58.6734 23.398 59.4586 23.6998 59.4586 24.9521V27.1259H58.7946V25.0203C58.7946 24.432 58.5757 23.941 57.9495 23.941C57.5191 23.941 57.1793 24.2506 57.0591 24.6202C57.0286 24.7034 57.0136 24.8164 57.0136 24.9298V27.1259H56.3496V24.4618Z" fill="#1A1F71"/>
</g>
<defs>
<clipPath id="clip0_182_741">
<rect width="60" height="26.7188" fill="white" transform="translate(0 0.5)"/>
</clipPath>
</defs>
</svg>
